<svg width="31" height="30" viewBox="0 0 31 30" fill="none" xmlns="http://www.w3.org/2000/svg">
<path fill-rule="evenodd" clip-rule="evenodd" d="M15.2242 0.231934C6.9318 0.231934 0.215332 6.94841 0.215332 15.2408C0.215332 21.8822 4.51162 27.4918 10.4777 29.4805C11.2281 29.6118 11.5095 29.1615 11.5095 28.7676C11.5095 28.4111 11.4908 27.2291 11.4908 25.9722C7.71977 26.6663 6.74419 25.0529 6.44402 24.2086C6.27517 23.7771 5.54348 22.4451 4.90561 22.0886C4.3803 21.8072 3.62985 21.113 4.88684 21.0943C6.06879 21.0755 6.91304 22.1824 7.19446 22.6327C8.54526 24.9028 10.7028 24.2649 11.5658 23.8709C11.6971 22.8953 12.0911 22.2387 12.5226 21.8635C9.18314 21.4883 5.69357 20.1937 5.69357 14.4528C5.69357 12.8206 6.27517 11.4698 7.23198 10.4192C7.08189 10.044 6.55658 8.50558 7.38207 6.44186C7.38207 6.44186 8.63906 6.04787 11.5095 7.98027C12.7102 7.64257 13.986 7.47372 15.2617 7.47372C16.5375 7.47372 17.8132 7.64257 19.0139 7.98027C21.8844 6.02911 23.1414 6.44186 23.1414 6.44186C23.9669 8.50558 23.4416 10.044 23.2915 10.4192C24.2483 11.4698 24.8299 12.8019 24.8299 14.4528C24.8299 20.2125 21.3216 21.4883 17.9821 21.8635C18.5262 22.3325 18.9952 23.233 18.9952 24.6401C18.9952 26.6476 18.9764 28.261 18.9764 28.7676C18.9764 29.1615 19.2578 29.6306 20.0083 29.4805C22.9878 28.4745 25.5768 26.5596 27.411 24.0052C29.2452 21.4508 30.2322 18.3855 30.2331 15.2408C30.2331 6.94841 23.5166 0.231934 15.2242 0.231934Z" fill="#FF7E21"/>
</svg>
