<svg width="30" height="30" viewBox="0 0 30 30" fill="none" xmlns="http://www.w3.org/2000/svg">
<path fill-rule="evenodd" clip-rule="evenodd" d="M15.2534 0.599976C7.31308 0.599976 0.876465 7.03685 0.876465 14.9767C0.876465 22.9169 7.31308 29.3538 15.2534 29.3538C23.1932 29.3538 29.6303 22.917 29.6303 14.9767C29.6303 7.03685 23.1932 0.599976 15.2534 0.599976ZM15.4214 23.3855C10.7873 23.3855 7.0339 19.6226 7.0339 14.9768C7.0339 10.3311 10.7873 6.56821 15.4214 6.56821C17.6861 6.56821 19.5781 7.40377 21.0305 8.75973L18.6659 11.13V11.1246C17.7854 10.2837 16.6689 9.85288 15.4214 9.85288C12.6536 9.85288 10.4047 12.1967 10.4047 14.9717C10.4047 17.7461 12.6536 20.0957 15.4214 20.0957C17.9324 20.0957 19.6411 18.6557 19.9927 16.6797H15.4214V13.4002H23.3105C23.4154 13.9624 23.4728 14.5511 23.4728 15.166C23.4728 19.9695 20.2651 23.3855 15.4214 23.3855Z" fill="#FF7E21"/>
</svg>
