<svg width="30" height="30" viewBox="0 0 30 30" fill="none" xmlns="http://www.w3.org/2000/svg">
<path d="M15.2838 0.832397C7.32606 0.832397 0.875244 7.28321 0.875244 15.2409C0.875244 23.1986 7.32606 29.6494 15.2838 29.6494C23.2415 29.6494 29.6923 23.1986 29.6923 15.2409C29.6923 7.28321 23.2415 0.832397 15.2838 0.832397ZM11.7567 21.2129H8.83895V11.8234H11.7567V21.2129ZM10.2798 10.6707C9.35826 10.6707 8.76241 10.0178 8.76241 9.21035C8.76241 8.38636 9.37627 7.75299 10.3173 7.75299C11.2584 7.75299 11.8347 8.38636 11.8527 9.21035C11.8527 10.0178 11.2584 10.6707 10.2798 10.6707ZM22.413 21.2129H19.4953V16.0094C19.4953 14.7982 19.072 13.9757 18.0169 13.9757C17.2109 13.9757 16.7321 14.5325 16.5205 15.0683C16.4425 15.2589 16.4229 15.5291 16.4229 15.7977V21.2114H13.5037V14.8177C13.5037 13.6455 13.4662 12.6654 13.4272 11.8219H15.9622L16.0957 13.1262H16.1543C16.5385 12.5138 17.4796 11.6103 19.054 11.6103C20.9736 11.6103 22.413 12.8965 22.413 15.6612V21.2129V21.2129Z" fill="#FF7E21"/>
</svg>
